<svg width="560" height="366" viewBox="0 0 560 366" fill="none" xmlns="http://www.w3.org/2000/svg">
<path d="M351.503 40.7316C351.983 40.0116 353.173 38.4316 355.443 36.2016ZM351.503 40.7316C353.063 39.1316 353.733 37.6816 355.443 36.2016ZM349.933 48.6416C351.783 45.4416 354.663 43.5416 361.083 35.8116ZM349.933 48.6416C352.783 45.4516 356.723 41.6416 361.083 35.8116ZM348.353 56.5516C354.713 49.7316 362.443 40.3016 366.073 36.1716ZM348.353 56.5516C352.283 51.1116 357.703 45.5416 366.073 36.1716ZM347.433 63.7016C353.573 56.6916 362.333 47.2516 371.053 36.5316ZM347.433 63.7016C356.533 55.2616 363.363 45.4116 371.053 36.5316ZM345.863 71.6116C354.283 62.6216 359.463 54.4016 376.703 36.1316ZM345.863 71.6116C358.373 58.3516 371.093 43.6316 376.703 36.1316ZM344.943 78.7616C354.173 70.0016 362.193 59.3916 381.683 36.4916ZM344.943 78.7616C352.293 69.9516 359.843 62.3716 381.683 36.4916ZM343.373 86.6716C353.343 73.2816 368.013 61.7616 386.673 36.8516ZM343.373 86.6716C359.683 67.6016 374.543 49.6216 386.673 36.8516ZM345.733 90.0416C364.223 68.9416 384.113 47.4916 392.313 36.4616ZM345.733 90.0416C363.203 68.7116 381.533 48.5916 392.313 36.4616ZM345.473 96.4416C361.433 76.8516 378.823 57.7016 397.303 36.8216ZM345.473 96.4416C364.493 72.9816 383.953 50.7216 397.303 36.8216ZM345.213 102.842C366.253 82.1916 386.513 56.7016 402.943 36.4316ZM345.213 102.842C360.273 86.4516 374.473 68.8216 402.943 36.4316ZM344.953 109.242C366.823 84.8916 389.383 58.1216 407.933 36.7916ZM344.953 109.242C365.913 84.8616 385.543 62.1216 407.933 36.7916ZM343.383 117.152C365.243 91.8116 388.713 62.0816 412.923 37.1516ZM343.383 117.152C362.453 96.3816 382.643 73.6416 412.923 37.1516ZM341.153 125.812C370.183 93.7016 397.553 59.2416 418.563 36.7516ZM341.153 125.812C359.923 103.452 378.413 82.1816 418.563 36.7516ZM339.573 133.712C361.263 111.572 380.813 85.9416 423.553 37.1116ZM339.573 133.712C370.503 97.4416 400.683 63.4016 423.553 37.1116ZM349.153 128.792C380.733 92.3816 410.283 54.2016 429.193 36.7216ZM349.153 128.792C369.163 106.362 388.133 84.1416 429.193 36.7216ZM359.393 123.112C373.243 107.132 388.303 88.2016 434.183 37.0816ZM359.393 123.112C380.823 97.8616 403.583 71.2916 434.183 37.0816ZM368.973 118.192C395.333 89.8616 421.213 57.2216 439.163 37.4416ZM368.973 118.192C383.593 100.322 399.893 84.1216 439.163 37.4416ZM379.203 112.512C396.423 90.7216 415.113 67.8616 444.813 37.0416ZM379.203 112.512C401.603 85.9316 424.623 61.5216 444.813 37.0416ZM393.373 102.312C406.213 85.1616 423.363 67.5416 449.793 37.4016ZM393.373 102.312C409.323 82.3116 428.253 62.2616 449.793 37.4016ZM404.273 95.8816C413.373 81.7416 426.213 70.0416 455.443 37.0116ZM404.273 95.8816C425.513 71.9116 444.763 49.1116 455.443 37.0116ZM415.163 89.4416C429.533 72.8016 442.323 56.9116 460.423 37.3716ZM415.163 89.4416C426.013 78.3916 435.753 65.4116 460.423 37.3716ZM426.053 83.0116C439.613 66.8316 450.653 54.2816 465.413 37.7316ZM426.053 83.0116C437.853 69.7916 447.293 58.2316 465.413 37.7316ZM436.943 76.5816C449.943 63.0416 460.993 48.2216 471.053 37.3316ZM436.943 76.5816C449.713 63.4116 462.333 49.2016 471.053 37.3316ZM447.833 70.1516C457.443 60.8116 465.383 47.9816 475.393 38.4516ZM447.833 70.1516C453.163 63.1716 459.003 57.7816 475.393 38.4516ZM458.723 63.7116C461.883 57.6316 469.783 53.4716 480.373 38.8116ZM458.723 63.7116C463.863 57.2216 468.863 50.1116 480.373 38.8116ZM463.053 64.8316C470.173 57.7816 477.643 45.4816 485.363 39.1716ZM463.053 64.8316C470.343 55.8616 477.483 47.9116 485.363 39.1716ZM471.323 61.4216C474.053 54.7916 478.773 48.5816 490.353 39.5316ZM471.323 61.4216C477.893 54.5416 483.833 46.7116 490.353 39.5316ZM480.243 57.2516C487.073 51.3816 491.213 43.6116 496.653 38.3816ZM480.243 57.2516C487.343 49.7816 493.023 42.9316 496.653 38.3816ZM488.513 53.8316C491.053 48.5616 496.553 45.9216 500.983 39.4916ZM488.513 53.8316C493.823 49.2716 497.573 43.5616 500.983 39.4916Z" stroke="#009D1C" stroke-width="0.5"/>
<path d="M35.8618 329.577C37.4718 327.727 39.0818 325.877 41.1118 323.537ZM35.8618 329.577C37.4218 327.777 38.9818 325.987 41.1118 323.537ZM36.2518 335.217C39.3518 331.657 42.4518 328.097 46.7518 323.147ZM36.2518 335.217C39.4818 331.497 42.7118 327.787 46.7518 323.147ZM47.1418 328.787C48.6718 327.027 50.2018 325.267 52.3918 322.747ZM47.1418 328.787C48.3518 327.407 49.5518 326.027 52.3918 322.747ZM54.7618 326.127C55.9018 324.807 57.0418 323.497 58.0418 322.357ZM54.7618 326.127C55.7018 325.037 56.6418 323.957 58.0418 322.357Z" stroke="#FA5252" stroke-width="0.5"/>
<path d="M247.355 217.6C263.405 199.14 279.455 180.67 288.685 170.05ZM247.355 217.6C258.415 204.87 269.485 192.14 288.685 170.05ZM239.875 232.3C253.735 216.36 267.595 200.41 302.855 159.85ZM239.875 232.3C262.475 206.3 285.075 180.31 302.855 159.85ZM233.055 246.25C265.315 209.14 297.565 172.03 315.715 151.15ZM233.055 246.25C261.965 212.98 290.885 179.72 315.715 151.15ZM238.695 245.85C268.025 212.12 297.345 178.38 326.605 144.72ZM238.695 245.85C264.515 216.15 290.325 186.45 326.605 144.72ZM246.965 242.44C266.555 219.89 286.155 197.35 336.185 139.8ZM246.965 242.44C276.015 209.01 305.075 175.59 336.185 139.8ZM255.885 238.27C275.375 215.85 294.865 193.43 335.925 146.2ZM255.885 238.27C281.715 208.55 307.545 178.84 335.925 146.2ZM266.125 232.59C280.875 215.62 295.635 198.64 334.355 154.1ZM266.125 232.59C284.065 211.95 302.005 191.32 334.355 154.1ZM277.015 226.16C290.945 210.13 304.885 194.1 331.465 163.52ZM277.015 226.16C292.515 208.32 308.025 190.49 331.465 163.52ZM285.285 222.75C301.385 204.22 317.495 185.69 327.925 173.69ZM285.285 222.75C295.795 210.65 306.305 198.56 327.925 173.69ZM295.515 217.07C306.125 204.87 316.725 192.67 323.075 185.37ZM295.515 217.07C306.145 204.84 316.765 192.62 323.075 185.37ZM306.405 210.64C309.305 207.31 312.195 203.98 317.565 197.81ZM306.405 210.64C309.515 207.07 312.615 203.49 317.565 197.81Z" stroke="#FA5252" stroke-width="0.5"/>
<path d="M68.9886 322.211C70.2886 319.951 71.8786 318.851 72.9286 317.681ZM68.9886 322.211C70.2886 320.681 71.8086 318.681 72.9286 317.681ZM74.6386 321.811C76.1786 319.931 78.8186 317.631 83.1586 312.001ZM74.6386 321.811C77.9686 317.871 80.3886 315.461 83.1586 312.001ZM80.2786 321.421C84.0386 316.981 86.3086 313.201 90.1186 310.101ZM80.2786 321.421C82.7686 317.171 86.9386 313.711 90.1186 310.101ZM85.9186 321.021C90.9286 317.321 93.1986 311.531 97.0786 308.191ZM85.9186 321.021C88.5186 318.221 90.6686 316.011 97.0786 308.191ZM90.9086 321.381C95.7486 315.851 98.1486 312.151 106.649 303.271ZM90.9086 321.381C94.6486 316.041 99.8086 310.391 106.649 303.271ZM96.5486 320.991C104.039 311.061 112.959 303.141 116.229 298.351ZM96.5486 320.991C102.979 313.791 109.559 306.861 116.229 298.351ZM102.199 320.591C104.609 316.881 110.629 309.541 123.189 296.441ZM102.199 320.591C109.369 313.611 116.459 305.051 123.189 296.441ZM107.839 320.201C115.429 313.321 118.329 305.871 131.459 293.031ZM107.839 320.201C112.999 312.841 120.669 306.041 131.459 293.031ZM113.479 319.801C118.779 310.401 125.489 304.041 139.719 289.611ZM113.479 319.801C120.149 310.851 127.919 302.261 139.719 289.611ZM119.119 319.411C129.179 309.421 134.529 300.731 147.989 286.201ZM119.119 319.411C130.709 305.921 141.939 293.761 147.989 286.201ZM124.769 319.011C129.679 312.751 139.049 302.501 156.259 282.791ZM124.769 319.011C132.239 310.741 141.799 301.061 156.259 282.791ZM130.409 318.621C137.849 308.481 146.769 299.871 164.529 279.371ZM130.409 318.621C139.939 307.151 150.129 295.501 164.529 279.371ZM136.049 318.221C143.369 309.001 154.559 298.891 172.789 275.961ZM136.049 318.221C145.719 306.031 157.319 293.431 172.789 275.961ZM141.699 317.831C157.269 298.281 174.059 281.311 181.059 272.551ZM141.699 317.831C157.689 300.401 171.619 282.471 181.059 272.551ZM147.999 316.681C163.449 298.861 177.419 281.511 189.329 269.131ZM147.999 316.681C159.279 302.851 169.609 290.151 189.329 269.131ZM154.949 314.781C166.059 304.711 171.489 296.291 198.249 264.971ZM154.949 314.781C164.029 306.171 170.889 296.161 198.249 264.971ZM161.249 313.631C171.219 300.431 182.839 291.821 207.829 260.041ZM161.249 313.631C174.379 299.571 187.089 284.921 207.829 260.041ZM168.209 311.721C182.399 294.311 194.149 281.451 216.749 255.881ZM168.209 311.721C181.029 299.141 191.879 284.691 216.749 255.881ZM175.159 309.821C185.919 296.561 198.099 284.581 223.049 254.731ZM175.159 309.821C184.309 298.531 195.009 287.441 223.049 254.731ZM181.459 308.671C193.889 294.371 203.019 280.101 233.289 249.051ZM181.459 308.671C199.589 286.811 219.279 265.341 233.289 249.051ZM190.379 304.501C200.579 291.861 208.349 280.321 229.749 259.221ZM190.379 304.501C204.959 289.091 217.549 271.781 229.749 259.221ZM200.619 298.821C208.669 289.481 216.009 281.281 220.299 276.181ZM200.619 298.821C204.419 293.341 208.239 288.361 220.299 276.181Z" stroke="#009D1C" stroke-width="0.5"/>
<path d="M475.504 311.513H477.836L479.79 314.085L480.305 314.771L483.22 318.646H480.888L478.967 316.074L478.487 315.423L475.504 311.513ZM483.94 308.222C483.94 310.073 483.605 311.673 482.937 313.022C482.268 314.371 481.351 315.411 480.185 316.143C479.019 316.874 477.687 317.24 476.19 317.24C474.693 317.24 473.361 316.874 472.195 316.143C471.029 315.411 470.112 314.371 469.443 313.022C468.775 311.673 468.44 310.073 468.44 308.222C468.44 306.37 468.775 304.77 469.443 303.421C470.112 302.072 471.029 301.032 472.195 300.3C473.361 299.569 474.693 299.203 476.19 299.203C477.687 299.203 479.019 299.569 480.185 300.3C481.351 301.032 482.268 302.072 482.937 303.421C483.605 304.77 483.94 306.37 483.94 308.222ZM481.882 308.222C481.882 306.701 481.628 305.418 481.119 304.372C480.616 303.327 479.933 302.535 479.07 301.998C478.213 301.461 477.253 301.192 476.19 301.192C475.127 301.192 474.164 301.461 473.301 301.998C472.444 302.535 471.761 303.327 471.252 304.372C470.749 305.418 470.498 306.701 470.498 308.222C470.498 309.742 470.749 311.025 471.252 312.071C471.761 313.117 472.444 313.908 473.301 314.445C474.164 314.983 475.127 315.251 476.19 315.251C477.253 315.251 478.213 314.983 479.07 314.445C479.933 313.908 480.616 313.117 481.119 312.071C481.628 311.025 481.882 309.742 481.882 308.222ZM495.539 311.616V303.832H497.562V317H495.539V314.771H495.401C495.093 315.44 494.613 316.008 493.961 316.477C493.31 316.94 492.487 317.171 491.492 317.171C490.669 317.171 489.938 316.991 489.298 316.631C488.657 316.266 488.155 315.717 487.789 314.985C487.423 314.248 487.24 313.319 487.24 312.199V303.832H489.263V312.062C489.263 313.022 489.532 313.788 490.069 314.36C490.612 314.931 491.304 315.217 492.144 315.217C492.647 315.217 493.158 315.088 493.678 314.831C494.204 314.574 494.644 314.18 494.998 313.648C495.358 313.117 495.539 312.439 495.539 311.616ZM505.142 317.309C504.308 317.309 503.55 317.151 502.87 316.837C502.19 316.517 501.65 316.057 501.25 315.457C500.85 314.851 500.65 314.12 500.65 313.262C500.65 312.508 500.799 311.896 501.096 311.428C501.393 310.953 501.79 310.582 502.287 310.313C502.785 310.045 503.333 309.845 503.933 309.713C504.539 309.576 505.148 309.467 505.759 309.387C506.559 309.285 507.208 309.207 507.705 309.156C508.208 309.099 508.574 309.005 508.803 308.873C509.037 308.742 509.154 308.513 509.154 308.187V308.119C509.154 307.273 508.923 306.616 508.46 306.147C508.003 305.678 507.308 305.444 506.377 305.444C505.411 305.444 504.653 305.655 504.105 306.078C503.556 306.501 503.17 306.953 502.947 307.433L501.027 306.747C501.37 305.947 501.827 305.324 502.399 304.878C502.976 304.427 503.605 304.112 504.285 303.935C504.971 303.752 505.645 303.661 506.308 303.661C506.731 303.661 507.217 303.712 507.765 303.815C508.32 303.912 508.854 304.115 509.368 304.424C509.889 304.732 510.32 305.198 510.663 305.821C511.006 306.444 511.177 307.279 511.177 308.324V317H509.154V315.217H509.051C508.914 315.503 508.685 315.808 508.365 316.134C508.045 316.46 507.62 316.737 507.088 316.966C506.557 317.194 505.908 317.309 505.142 317.309ZM505.451 315.491C506.251 315.491 506.925 315.334 507.474 315.02C508.028 314.705 508.445 314.3 508.725 313.802C509.011 313.305 509.154 312.782 509.154 312.234V310.382C509.068 310.485 508.88 310.579 508.588 310.665C508.303 310.745 507.971 310.816 507.594 310.879C507.222 310.936 506.859 310.988 506.505 311.033C506.157 311.073 505.874 311.108 505.656 311.136C505.131 311.205 504.639 311.316 504.182 311.471C503.73 311.619 503.365 311.845 503.085 312.148C502.81 312.445 502.673 312.851 502.673 313.365C502.673 314.068 502.933 314.6 503.453 314.96C503.979 315.314 504.645 315.491 505.451 315.491ZM516.893 299.443V317H514.87V299.443H516.893ZM520.599 317V303.832H522.622V317H520.599ZM521.627 301.638C521.233 301.638 520.893 301.503 520.607 301.235C520.327 300.966 520.187 300.643 520.187 300.266C520.187 299.889 520.327 299.566 520.607 299.297C520.893 299.029 521.233 298.894 521.627 298.894C522.022 298.894 522.359 299.029 522.639 299.297C522.925 299.566 523.068 299.889 523.068 300.266C523.068 300.643 522.925 300.966 522.639 301.235C522.359 301.503 522.022 301.638 521.627 301.638ZM532.054 303.832V305.547H525.23V303.832H532.054ZM527.219 300.678H529.242V313.228C529.242 313.8 529.325 314.228 529.491 314.514C529.662 314.794 529.879 314.983 530.142 315.08C530.411 315.171 530.694 315.217 530.991 315.217C531.214 315.217 531.397 315.205 531.54 315.183C531.682 315.154 531.797 315.131 531.882 315.114L532.294 316.931C532.157 316.983 531.965 317.034 531.72 317.086C531.474 317.143 531.162 317.171 530.785 317.171C530.214 317.171 529.654 317.049 529.105 316.803C528.562 316.557 528.11 316.183 527.75 315.68C527.396 315.177 527.219 314.542 527.219 313.777V300.678ZM536.4 321.938C536.057 321.938 535.752 321.909 535.483 321.852C535.214 321.801 535.029 321.749 534.926 321.698L535.44 319.915C535.932 320.04 536.366 320.086 536.743 320.052C537.12 320.018 537.455 319.849 537.746 319.546C538.043 319.249 538.315 318.766 538.561 318.097L538.938 317.069L534.069 303.832H536.263L539.898 314.325H540.035L543.67 303.832H545.865L540.275 318.92C540.024 319.6 539.712 320.163 539.341 320.609C538.969 321.061 538.538 321.395 538.046 321.612C537.56 321.829 537.012 321.938 536.4 321.938Z" fill="#BFBFBF"/>
<path d="M54.165 31V13.1217H64.9548V15.0422H56.3299V21.0831H64.3961V23.0036H56.3299V29.0795H65.0945V31H54.165ZM74.5487 17.5913V19.3372H67.3205V17.5913H74.5487ZM69.4855 31V15.7406C69.4855 14.9724 69.6659 14.3322 70.0267 13.8201C70.3875 13.3079 70.856 12.9238 71.4322 12.6678C72.0083 12.4117 72.6165 12.2836 73.2567 12.2836C73.763 12.2836 74.1762 12.3244 74.4963 12.4059C74.8164 12.4873 75.055 12.563 75.2121 12.6328L74.6185 14.4137C74.5137 14.3788 74.3682 14.3351 74.182 14.2827C74.0016 14.2304 73.763 14.2042 73.4662 14.2042C72.7853 14.2042 72.2935 14.3759 71.9909 14.7192C71.6941 15.0626 71.5457 15.566 71.5457 16.2294V31H69.4855ZM83.4071 17.5913V19.3372H76.1789V17.5913H83.4071ZM78.3439 31V15.7406C78.3439 14.9724 78.5243 14.3322 78.8851 13.8201C79.2459 13.3079 79.7144 12.9238 80.2906 12.6678C80.8667 12.4117 81.4749 12.2836 82.1151 12.2836C82.6214 12.2836 83.0346 12.3244 83.3547 12.4059C83.6748 12.4873 83.9134 12.563 84.0705 12.6328L83.4769 14.4137C83.3721 14.3788 83.2267 14.3351 83.0404 14.2827C82.86 14.2304 82.6214 14.2042 82.3246 14.2042C81.6437 14.2042 81.1519 14.3759 80.8493 14.7192C80.5525 15.0626 80.4041 15.566 80.4041 16.2294V31H78.3439ZM91.1895 31.2793C89.979 31.2793 88.9169 30.9913 88.0032 30.4151C87.0953 29.839 86.3853 29.0329 85.8732 27.997C85.3669 26.9611 85.1137 25.7506 85.1137 24.3655C85.1137 22.9687 85.3669 21.7495 85.8732 20.7078C86.3853 19.666 87.0953 18.8571 88.0032 18.2809C88.9169 17.7048 89.979 17.4167 91.1895 17.4167C92.4001 17.4167 93.4592 17.7048 94.3671 18.2809C95.2808 18.8571 95.9908 19.666 96.4972 20.7078C97.0093 21.7495 97.2654 22.9687 97.2654 24.3655C97.2654 25.7506 97.0093 26.9611 96.4972 27.997C95.9908 29.0329 95.2808 29.839 94.3671 30.4151C93.4592 30.9913 92.4001 31.2793 91.1895 31.2793ZM91.1895 29.4287C92.1091 29.4287 92.8656 29.193 93.4592 28.7216C94.0529 28.2502 94.4923 27.6304 94.7774 26.8621C95.0626 26.0939 95.2052 25.2617 95.2052 24.3655C95.2052 23.4692 95.0626 22.6341 94.7774 21.8601C94.4923 21.086 94.0529 20.4604 93.4592 19.9832C92.8656 19.506 92.1091 19.2674 91.1895 19.2674C90.27 19.2674 89.5134 19.506 88.9198 19.9832C88.3262 20.4604 87.8868 21.086 87.6017 21.8601C87.3165 22.6341 87.1739 23.4692 87.1739 24.3655C87.1739 25.2617 87.3165 26.0939 87.6017 26.8621C87.8868 27.6304 88.3262 28.2502 88.9198 28.7216C89.5134 29.193 90.27 29.4287 91.1895 29.4287ZM100.41 31V17.5913H102.401V19.6165H102.54C102.785 18.9531 103.227 18.4148 103.867 18.0016C104.507 17.5884 105.229 17.3818 106.032 17.3818C106.183 17.3818 106.373 17.3847 106.6 17.3905C106.827 17.3963 106.998 17.405 107.115 17.4167V19.5118C107.045 19.4943 106.885 19.4681 106.634 19.4332C106.39 19.3925 106.131 19.3721 105.858 19.3721C105.206 19.3721 104.624 19.5089 104.112 19.7824C103.605 20.0501 103.204 20.4226 102.907 20.8998C102.616 21.3712 102.47 21.9095 102.47 22.5148V31H100.41ZM116.228 17.5913V19.3372H109.28V17.5913H116.228ZM111.305 14.3788H113.365V27.159C113.365 27.7409 113.449 28.1774 113.618 28.4684C113.793 28.7536 114.014 28.9456 114.282 29.0446C114.555 29.1377 114.843 29.1842 115.146 29.1842C115.373 29.1842 115.559 29.1726 115.705 29.1493C115.85 29.1202 115.966 29.0969 116.054 29.0795L116.473 30.9302C116.333 30.9825 116.138 31.0349 115.888 31.0873C115.638 31.1455 115.32 31.1746 114.936 31.1746C114.354 31.1746 113.784 31.0495 113.225 30.7992C112.672 30.549 112.213 30.1678 111.846 29.6556C111.485 29.1435 111.305 28.4975 111.305 27.7177V14.3788Z" fill="#BFBFBF"/>
<path d="M37.0252 333.653C75.1052 316.723 217.325 257.873 265.535 232.053C313.745 206.233 312.015 211.913 326.275 178.733C340.535 145.553 346.975 57.2727 351.105 32.9827" stroke="#C84444" stroke-width="4" stroke-linecap="round"/>
<path d="M37.2399 322.706C63.8899 319.056 156.75 325.046 197.11 300.836C237.47 276.616 227.75 220.896 279.39 177.416C331.03 133.936 469.03 62.8463 506.96 39.9363" stroke="#4A8FB2" stroke-width="4" stroke-linecap="round"/>
<path d="M35.3781 355.326C35.2481 298.006 35.8981 69.4156 36.0881 12.0056M37.0081 354.306C36.6981 296.546 35.4381 67.1056 35.2681 9.99561" stroke="#B5B5B5" stroke-width="2" stroke-linecap="round"/>
<path d="M43.9281 33.4556C40.9981 25.9556 38.3781 18.7256 35.2681 9.99561ZM43.9281 33.4556C41.3981 28.9156 39.3681 22.3856 35.2681 9.99561Z" stroke="#B5B5B5" stroke-width="2" stroke-linecap="round"/>
<path d="M26.8281 33.5256C29.6281 26.1556 32.7381 18.9056 35.2681 9.99561ZM26.8281 33.5256C28.0981 29.0756 29.8681 22.5256 35.2681 9.99561Z" stroke="#B5B5B5" stroke-width="2" stroke-linecap="round"/>
<path d="M11.1697 335.735C101 335.805 459.89 335.865 549.61 335.775M9.99969 334.955C99.7197 335.215 459.11 337.055 548.92 337.255" stroke="#B5B5B5" stroke-width="2" stroke-linecap="round"/>
<path d="M525.4 345.715C533.31 343.895 539.36 341.125 548.92 337.255ZM525.4 345.715C531.52 343.765 535.76 340.885 548.92 337.255Z" stroke="#B5B5B5" stroke-width="2" stroke-linecap="round"/>
<path d="M525.46 328.615C533.36 331.925 539.4 334.295 548.92 337.255ZM525.46 328.615C531.71 330.805 535.93 332.075 548.92 337.255Z" stroke="#B5B5B5" stroke-width="2" stroke-linecap="round"/>
<path d="M422.52 127.48C421.325 127.48 420.173 127.32 419.064 127C417.955 126.659 417.027 126.253 416.28 125.784L416.472 121.304H418.456L419.096 125.08C419.587 125.357 420.088 125.56 420.6 125.688C421.133 125.816 421.741 125.88 422.424 125.88C423.939 125.88 425.144 125.549 426.04 124.888C426.936 124.205 427.384 123.245 427.384 122.008C427.384 120.984 427.064 120.195 426.424 119.64C425.805 119.064 424.813 118.509 423.448 117.976L422.2 117.464C420.557 116.824 419.224 116.003 418.2 115C417.197 113.976 416.696 112.653 416.696 111.032C416.696 109.795 417.005 108.739 417.624 107.864C418.264 106.989 419.128 106.317 420.216 105.848C421.304 105.357 422.531 105.112 423.896 105.112C424.963 105.112 425.933 105.261 426.808 105.56C427.683 105.859 428.461 106.264 429.144 106.776L428.952 110.968H427L426.328 107.352C425.539 106.925 424.664 106.712 423.704 106.712C422.488 106.712 421.464 107.021 420.632 107.64C419.8 108.237 419.384 109.133 419.384 110.328C419.384 111.309 419.693 112.12 420.312 112.76C420.952 113.4 421.848 113.944 423 114.392L424.28 114.872C426.371 115.683 427.864 116.6 428.76 117.624C429.656 118.627 430.104 119.885 430.104 121.4C430.104 122.659 429.773 123.747 429.112 124.664C428.472 125.56 427.587 126.253 426.456 126.744C425.325 127.235 424.013 127.48 422.52 127.48ZM431.863 127V125.848L434.423 125.4C434.444 124.525 434.455 123.672 434.455 122.84C434.476 121.987 434.487 121.133 434.487 120.28V106.232L431.863 105.912V104.792L436.855 103.352L437.303 103.608L437.175 108.152V120.28C437.175 121.133 437.175 121.987 437.175 122.84C437.196 123.693 437.217 124.547 437.239 125.4L439.799 125.848V127H431.863ZM441.714 127V125.848L444.114 125.4C444.135 124.589 444.146 123.715 444.146 122.776C444.167 121.816 444.178 120.984 444.178 120.28V118.776C444.178 117.901 444.167 117.176 444.146 116.6C444.146 116.003 444.124 115.384 444.082 114.744L441.522 114.456V113.336L446.45 111.384L446.93 111.704L446.834 116.056V120.28C446.834 120.984 446.834 121.816 446.834 122.776C446.855 123.715 446.876 124.589 446.898 125.4L449.138 125.848V127H441.714ZM445.49 107.864C444.892 107.864 444.38 107.672 443.954 107.288C443.548 106.904 443.346 106.413 443.346 105.816C443.346 105.197 443.548 104.707 443.954 104.344C444.38 103.96 444.892 103.768 445.49 103.768C446.087 103.768 446.588 103.96 446.994 104.344C447.42 104.707 447.634 105.197 447.634 105.816C447.634 106.413 447.42 106.904 446.994 107.288C446.588 107.672 446.087 107.864 445.49 107.864ZM454.445 119.48C454.445 121.571 454.861 123.117 455.693 124.12C456.546 125.101 457.613 125.592 458.893 125.592C459.597 125.592 460.216 125.453 460.749 125.176C461.304 124.877 461.88 124.397 462.477 123.736V114.872C461.752 114.232 461.101 113.795 460.525 113.56C459.949 113.325 459.394 113.208 458.861 113.208C458.072 113.208 457.336 113.432 456.653 113.88C455.992 114.307 455.458 114.989 455.053 115.928C454.648 116.845 454.445 118.029 454.445 119.48ZM462.797 127.32L462.573 125.112C462.018 125.837 461.378 126.403 460.653 126.808C459.949 127.213 459.096 127.416 458.093 127.416C456.792 127.416 455.65 127.085 454.669 126.424C453.688 125.763 452.92 124.845 452.365 123.672C451.832 122.477 451.565 121.101 451.565 119.544C451.565 117.901 451.864 116.472 452.461 115.256C453.058 114.04 453.869 113.091 454.893 112.408C455.917 111.725 457.08 111.384 458.381 111.384C459.128 111.384 459.842 111.533 460.525 111.832C461.229 112.131 461.912 112.675 462.573 113.464V106.232L459.853 105.912V104.792L464.845 103.352L465.293 103.608L465.165 108.152V125.464L467.757 125.848V127L462.797 127.32ZM476.889 112.856C476.292 112.856 475.684 113.027 475.065 113.368C474.468 113.709 473.945 114.253 473.497 115C473.071 115.747 472.793 116.739 472.665 117.976H478.489C479.257 117.976 479.759 117.816 479.993 117.496C480.249 117.176 480.377 116.781 480.377 116.312C480.377 115.693 480.217 115.128 479.897 114.616C479.599 114.083 479.183 113.656 478.649 113.336C478.137 113.016 477.551 112.856 476.889 112.856ZM476.857 127.416C474.703 127.416 472.975 126.723 471.673 125.336C470.372 123.928 469.721 121.997 469.721 119.544C469.721 117.901 470.052 116.472 470.713 115.256C471.396 114.04 472.292 113.091 473.401 112.408C474.532 111.725 475.759 111.384 477.081 111.384C478.191 111.384 479.193 111.629 480.089 112.12C480.985 112.611 481.7 113.315 482.233 114.232C482.767 115.128 483.033 116.227 483.033 117.528C483.033 117.891 483.012 118.232 482.969 118.552C482.927 118.851 482.873 119.107 482.809 119.32H472.601C472.644 121.283 473.135 122.776 474.073 123.8C475.012 124.824 476.249 125.336 477.785 125.336C478.809 125.336 479.663 125.133 480.345 124.728C481.028 124.301 481.657 123.757 482.233 123.096L483.001 123.704C482.404 124.835 481.593 125.741 480.569 126.424C479.545 127.085 478.308 127.416 476.857 127.416ZM494.073 113.048V111.8H500.153V113.048L498.393 113.464L493.209 127.192H491.833L486.009 113.368L484.281 113.048V111.8H492.025V113.048L489.209 113.464L493.113 123.704L496.665 113.496L494.073 113.048Z" fill="#4A8FB2"/>
<path d="M185.138 51.8473H183.395C183.376 53.0867 183.356 54.3552 183.337 55.6527C183.337 56.9308 183.337 58.2186 183.337 59.5161V60.9104H185.254C187.016 60.9104 188.275 60.4843 189.03 59.6323C189.786 58.7608 190.163 57.6473 190.163 56.2917C190.163 54.878 189.757 53.7839 188.943 53.0093C188.149 52.2346 186.881 51.8473 185.138 51.8473ZM177.847 51.7021V50.5111H185.661C188.12 50.5111 189.96 51.0534 191.18 52.1378C192.419 53.2029 193.039 54.5875 193.039 56.2917C193.039 57.3762 192.768 58.3735 192.226 59.2837C191.683 60.1939 190.812 60.9201 189.611 61.4623C188.43 62.0045 186.842 62.2756 184.847 62.2756H183.337C183.337 63.3214 183.337 64.3477 183.337 65.3547C183.356 66.3617 183.376 67.3881 183.395 68.4339L186.097 68.7534V69.9444H177.847V68.7534L180.519 68.4339C180.558 67.2138 180.577 65.9744 180.577 64.7157C180.577 63.4569 180.577 62.1982 180.577 60.9394V59.5161C180.577 58.2573 180.577 57.0082 180.577 55.7688C180.577 54.5101 180.558 53.261 180.519 52.0216L177.847 51.7021ZM201.066 70.322C199.943 70.322 198.868 70.0606 197.842 69.5377C196.835 68.9955 196.012 68.1918 195.373 67.1267C194.734 66.0422 194.414 64.706 194.414 63.118C194.414 61.5107 194.734 60.1648 195.373 59.0803C196.012 57.9765 196.835 57.1535 197.842 56.6112C198.868 56.0496 199.943 55.7688 201.066 55.7688C202.189 55.7688 203.254 56.0496 204.261 56.6112C205.288 57.1535 206.121 57.9765 206.76 59.0803C207.418 60.1648 207.747 61.5107 207.747 63.118C207.747 64.706 207.418 66.0422 206.76 67.1267C206.121 68.1918 205.288 68.9955 204.261 69.5377C203.254 70.0606 202.189 70.322 201.066 70.322ZM201.066 69.0148C202.325 69.0148 203.293 68.521 203.971 67.5334C204.649 66.5264 204.988 65.0546 204.988 63.118C204.988 61.1621 204.649 59.671 203.971 58.6446C203.293 57.6182 202.325 57.1051 201.066 57.1051C199.807 57.1051 198.839 57.6182 198.161 58.6446C197.503 59.671 197.174 61.1621 197.174 63.118C197.174 65.0546 197.503 66.5264 198.161 67.5334C198.839 68.521 199.807 69.0148 201.066 69.0148ZM225.636 57.2793V56.1465H230.952V57.2793L229.383 57.657L225.142 70.1186H224.067L220.291 59.8065L216.457 70.1186H215.382L210.705 57.5698L209.049 57.2793V56.1465H215.672V57.2793L213.407 57.6279L216.399 66.5457L219.652 57.6279L217.502 57.2793V56.1465H223.922V57.2793L221.772 57.657L225.084 66.5167L227.785 57.686L225.636 57.2793ZM238.479 57.1051C237.937 57.1051 237.385 57.26 236.824 57.5698C236.281 57.8797 235.807 58.3735 235.4 59.0513C235.013 59.7291 234.761 60.6296 234.645 61.7528H239.932C240.629 61.7528 241.084 61.6075 241.297 61.317C241.529 61.0266 241.646 60.6683 241.646 60.2423C241.646 59.6807 241.5 59.1675 241.21 58.7027C240.939 58.2186 240.561 57.8313 240.077 57.5408C239.612 57.2503 239.08 57.1051 238.479 57.1051ZM238.45 70.322C236.494 70.322 234.926 69.6926 233.744 68.4339C232.563 67.1557 231.972 65.4032 231.972 63.1761C231.972 61.685 232.273 60.3875 232.873 59.2837C233.493 58.1798 234.306 57.3181 235.313 56.6984C236.339 56.0787 237.453 55.7688 238.654 55.7688C239.661 55.7688 240.571 55.9915 241.384 56.437C242.197 56.8824 242.846 57.5214 243.33 58.3541C243.814 59.1675 244.057 60.1648 244.057 61.3461C244.057 61.6753 244.037 61.9852 243.998 62.2756C243.96 62.5468 243.911 62.7791 243.853 62.9728H234.587C234.626 64.7544 235.071 66.11 235.923 67.0395C236.775 67.9691 237.898 68.4339 239.293 68.4339C240.222 68.4339 240.997 68.2499 241.616 67.8819C242.236 67.4946 242.807 67.0008 243.33 66.4005L244.027 66.9524C243.485 67.9788 242.749 68.8018 241.82 69.4215C240.89 70.0218 239.767 70.322 238.45 70.322ZM246.693 69.9444V68.8986L248.785 68.521C248.804 67.7851 248.814 66.9911 248.814 66.139C248.833 65.2676 248.843 64.5027 248.843 63.8442V62.4499C248.843 61.6559 248.833 60.9975 248.814 60.4746C248.814 59.9518 248.794 59.3999 248.756 58.8189L246.461 58.5575V57.5408L250.527 55.7688L250.963 56.0593L251.283 59.487C251.767 58.3251 252.387 57.4149 253.142 56.7565C253.916 56.0981 254.691 55.7688 255.466 55.7688C255.911 55.7688 256.327 55.8657 256.715 56.0593C257.102 56.253 257.383 56.5144 257.557 56.8436C257.557 58.2573 256.986 58.9641 255.843 58.9641C255.514 58.9641 255.204 58.906 254.914 58.7899C254.623 58.6543 254.342 58.4703 254.071 58.2379L253.723 57.9184C253.142 58.3444 252.658 58.8673 252.27 59.487C251.883 60.1067 251.564 60.8329 251.312 61.6656V63.8442C251.312 64.4833 251.312 65.2289 251.312 66.0809C251.331 66.933 251.351 67.727 251.37 68.4629L253.752 68.8986V69.9444H246.693ZM265.758 51.8473H264.015C263.996 53.0867 263.976 54.3552 263.957 55.6527C263.957 56.9308 263.957 58.2186 263.957 59.5161V60.9104H265.874C267.636 60.9104 268.895 60.4843 269.65 59.6323C270.406 58.7608 270.783 57.6473 270.783 56.2917C270.783 54.878 270.377 53.7839 269.563 53.0093C268.769 52.2346 267.501 51.8473 265.758 51.8473ZM258.467 51.7021V50.5111H266.281C268.74 50.5111 270.58 51.0534 271.8 52.1378C273.039 53.2029 273.659 54.5875 273.659 56.2917C273.659 57.3762 273.388 58.3735 272.846 59.2837C272.304 60.1939 271.432 60.9201 270.231 61.4623C269.05 62.0045 267.462 62.2756 265.468 62.2756H263.957C263.957 63.3214 263.957 64.3477 263.957 65.3547C263.976 66.3617 263.996 67.3881 264.015 68.4339L266.717 68.7534V69.9444H258.467V68.7534L261.139 68.4339C261.178 67.2138 261.197 65.9744 261.197 64.7157C261.197 63.4569 261.197 62.1982 261.197 60.9394V59.5161C261.197 58.2573 261.197 57.0082 261.197 55.7688C261.197 54.5101 261.178 53.261 261.139 52.0216L258.467 51.7021ZM281.686 70.322C280.563 70.322 279.488 70.0606 278.462 69.5377C277.455 68.9955 276.632 68.1918 275.993 67.1267C275.354 66.0422 275.034 64.706 275.034 63.118C275.034 61.5107 275.354 60.1648 275.993 59.0803C276.632 57.9765 277.455 57.1535 278.462 56.6112C279.488 56.0496 280.563 55.7688 281.686 55.7688C282.809 55.7688 283.874 56.0496 284.881 56.6112C285.908 57.1535 286.741 57.9765 287.38 59.0803C288.038 60.1648 288.367 61.5107 288.367 63.118C288.367 64.706 288.038 66.0422 287.38 67.1267C286.741 68.1918 285.908 68.9955 284.881 69.5377C283.874 70.0606 282.809 70.322 281.686 70.322ZM281.686 69.0148C282.945 69.0148 283.913 68.521 284.591 67.5334C285.269 66.5264 285.608 65.0546 285.608 63.118C285.608 61.1621 285.269 59.671 284.591 58.6446C283.913 57.6182 282.945 57.1051 281.686 57.1051C280.427 57.1051 279.459 57.6182 278.781 58.6446C278.123 59.671 277.794 61.1621 277.794 63.118C277.794 65.0546 278.123 66.5264 278.781 67.5334C279.459 68.521 280.427 69.0148 281.686 69.0148ZM290.686 69.9444V68.8986L292.865 68.4919C292.884 67.7561 292.894 66.9621 292.894 66.11C292.913 65.2386 292.923 64.4833 292.923 63.8442V62.479C292.923 61.685 292.913 61.0266 292.894 60.5037C292.894 59.9615 292.874 59.3999 292.836 58.8189L290.512 58.5575V57.5408L294.985 55.7688L295.421 56.0593L295.334 60.0099V63.8442C295.334 64.4833 295.334 65.2386 295.334 66.11C295.353 66.9621 295.373 67.7561 295.392 68.4919L297.425 68.8986V69.9444H290.686ZM294.114 52.5735C293.572 52.5735 293.107 52.3993 292.72 52.0507C292.352 51.7021 292.168 51.2567 292.168 50.7145C292.168 50.1529 292.352 49.7075 292.72 49.3782C293.107 49.0297 293.572 48.8554 294.114 48.8554C294.656 48.8554 295.111 49.0297 295.479 49.3782C295.866 49.7075 296.06 50.1529 296.06 50.7145C296.06 51.2567 295.866 51.7021 295.479 52.0507C295.111 52.3993 294.656 52.5735 294.114 52.5735ZM299.483 69.9444V68.8986L301.633 68.4919C301.652 67.7561 301.662 66.9621 301.662 66.11C301.681 65.2579 301.691 64.5027 301.691 63.8442V62.4499C301.691 61.6559 301.681 60.9975 301.662 60.4746C301.662 59.9518 301.643 59.3999 301.604 58.8189L299.309 58.5575V57.5408L303.376 55.7688L303.812 56.0593L304.044 58.3832C304.761 57.6086 305.584 56.9792 306.513 56.495C307.443 56.0109 308.353 55.7688 309.244 55.7688C310.502 55.7688 311.432 56.1949 312.032 57.047C312.652 57.8797 312.962 59.2449 312.962 61.1428V63.8442C312.962 64.5027 312.962 65.2579 312.962 66.11C312.981 66.9621 313.001 67.7561 313.02 68.4919L315.053 68.8986V69.9444H308.314V68.8986L310.464 68.4919C310.483 67.7754 310.493 66.9911 310.493 66.139C310.512 65.2676 310.522 64.5027 310.522 63.8442V61.3751C310.522 60.0389 310.328 59.1191 309.941 58.6156C309.573 58.1121 308.963 57.8603 308.111 57.8603C307.452 57.8603 306.813 57.9959 306.194 58.267C305.574 58.5381 304.896 58.9835 304.16 59.6032V63.8442C304.16 64.4833 304.16 65.2386 304.16 66.11C304.18 66.9621 304.199 67.7561 304.218 68.4919L306.223 68.8986V69.9444H299.483ZM321.751 70.322C320.744 70.322 319.94 70.0509 319.34 69.5086C318.739 68.9664 318.439 68.1337 318.439 67.0105C318.439 66.6425 318.439 66.2843 318.439 65.9357C318.459 65.5678 318.468 65.103 318.468 64.5414V57.686H316.057V56.4079L318.643 56.0884L319.398 52.1959H321.141L320.966 56.1465H324.888V57.686H320.937V66.691C320.937 67.4268 321.083 67.9691 321.373 68.3177C321.664 68.6469 322.051 68.8115 322.535 68.8115C322.864 68.8115 323.174 68.7437 323.465 68.6081C323.774 68.4726 324.113 68.2789 324.481 68.0272L325.178 68.7824C324.384 69.8088 323.242 70.322 321.751 70.322Z" fill="#FF6E6E"/>
<path d="M156.105 308.164H151.27L165.254 270.079H170.014L183.998 308.164H179.164L167.783 276.104H167.485L156.105 308.164ZM157.89 293.287H177.378V297.378H157.89V293.287Z" fill="#6BC07B"/>
<path d="M384.28 83.4889V45.4046H397.594C400.247 45.4046 402.435 45.8633 404.158 46.7807C405.882 47.6857 407.165 48.9068 408.008 50.4441C408.851 51.9689 409.272 53.6612 409.272 55.5207C409.272 57.1572 408.981 58.5085 408.398 59.5746C407.828 60.6408 407.072 61.4838 406.13 62.1037C405.2 62.7236 404.189 63.1822 403.099 63.4798V63.8517C404.264 63.9261 405.435 64.3352 406.613 65.079C407.791 65.8229 408.776 66.889 409.57 68.2775C410.363 69.666 410.76 71.3644 410.76 73.3728C410.76 75.282 410.326 76.999 409.458 78.5238C408.591 80.0487 407.221 81.2574 405.349 82.15C403.477 83.0426 401.041 83.4889 398.04 83.4889H384.28ZM388.891 79.3979H398.04C401.053 79.3979 403.192 78.8152 404.456 77.6498C405.733 76.4721 406.371 75.0464 406.371 73.3728C406.371 72.0835 406.043 70.8933 405.386 69.8024C404.729 68.699 403.793 67.8188 402.578 67.1618C401.363 66.4923 399.925 66.1576 398.264 66.1576H388.891V79.3979ZM388.891 62.1409H397.445C398.834 62.1409 400.086 61.8681 401.202 61.3227C402.33 60.7772 403.223 60.0086 403.88 59.0168C404.549 58.025 404.884 56.8596 404.884 55.5207C404.884 53.8471 404.301 52.4276 403.136 51.2623C401.97 50.0846 400.123 49.4957 397.594 49.4957H388.891V62.1409Z" fill="#6BC07B"/>
<path d="M292.79 164.712L302.609 180.556H302.906L312.725 164.712H318.155L306.179 183.755L318.155 202.797H312.725L302.906 187.251H302.609L292.79 202.797H287.36L299.634 183.755L287.36 164.712H292.79Z" fill="#FF7E7E"/>
</svg>
